HIERARCHY
ROOT Hips
{
    OFFSET 0.000000 97.120003 0.000000
    CHANNELS 6 Xposition Yposition Zposition Yrotation Xrotation Zrotation
    JOINT RightUpLeg
    {
        OFFSET -11.000000 -0.000000 0.000000
        CHANNELS 3 Yrotation Xrotation Zrotation
        JOINT RightLeg
        {
            OFFSET 0.000000 -45.062000 0.000000
            CHANNELS 3 Yrotation Xrotation Zrotation
            JOINT RightFoot
            {
                OFFSET 0.000000 -42.057999 0.000000
                CHANNELS 3 Yrotation Xrotation Zrotation
                End Site
                {
                    OFFSET 0.000000 -10.000000 15.120000
                }
            }
        }
    }
    JOINT LeftUpLeg
    {
        OFFSET 11.000000 -0.000000 0.000000
        CHANNELS 3 Yrotation Xrotation Zrotation
        JOINT LeftLeg
        {
            OFFSET 0.000000 -45.062000 0.000000
            CHANNELS 3 Yrotation Xrotation Zrotation
            JOINT LeftFoot
            {
                OFFSET 0.000000 -42.057999 0.000000
                CHANNELS 3 Yrotation Xrotation Zrotation
                End Site
                {
                    OFFSET 0.000000 -10.000000 15.120000
                }
            }
        }
    }
    JOINT Spine
    {
        OFFSET 0.000000 8.120000 0.000000
        CHANNELS 3 Yrotation Xrotation Zrotation
        JOINT Spine1
        {
            OFFSET 0.000000 17.980000 0.000000
            CHANNELS 3 Yrotation Xrotation Zrotation
            JOINT Spine2
            {
                OFFSET 0.000000 12.760000 0.000000
                CHANNELS 3 Yrotation Xrotation Zrotation
                JOINT Neck
                {
                    OFFSET 0.000000 19.139999 0.000000
                    CHANNELS 3 Yrotation Xrotation Zrotation
                    JOINT Neck1
                    {
                        OFFSET 0.000000 4.250000 0.000000
                        CHANNELS 3 Yrotation Xrotation Zrotation
                        JOINT Head
                        {
                            OFFSET 0.000000 4.250000 0.000000
                            CHANNELS 3 Yrotation Xrotation Zrotation
                            End Site
                            {
                                OFFSET 0.000000 19.120001 0.000000
                            }
                        }
                    }
                }
                JOINT RightShoulder
                {
                    OFFSET -2.900000 13.340000 0.000000
                    CHANNELS 3 Yrotation Xrotation Zrotation
                    JOINT RightArm
                    {
                        OFFSET -16.100000 0.000000 0.000000
                        CHANNELS 3 Yrotation Xrotation Zrotation
                        JOINT RightForeArm
                        {
                            OFFSET -28.000000 0.000000 0.000000
                            CHANNELS 3 Yrotation Xrotation Zrotation
                            JOINT RightHand
                            {
                                OFFSET -26.000000 0.000000 0.000000
                                CHANNELS 3 Yrotation Xrotation Zrotation
                                JOINT RightHandThumb1
                                {
                                    OFFSET -1.937000 -0.484000 2.518000
                                    CHANNELS 3 Yrotation Xrotation Zrotation
                                    JOINT RightHandThumb2
                                    {
                                        OFFSET -3.872000 0.000000 0.000000
                                        CHANNELS 3 Yrotation Xrotation Zrotation
                                        JOINT RightHandThumb3
                                        {
                                            OFFSET -2.690000 0.000000 0.000000
                                            CHANNELS 3 Yrotation Xrotation Zrotation
                                            End Site
                                            {
                                                OFFSET -2.537000 0.000000 0.000000
                                            }
                                        }
                                    }
                                }
                                JOINT RightInHandIndex
                                {
                                    OFFSET -3.389000 0.535000 2.080000
                                    CHANNELS 3 Yrotation Xrotation Zrotation
                                    JOINT RightHandIndex1
                                    {
                                        OFFSET -5.485000 -0.096000 1.051000
                                        CHANNELS 3 Yrotation Xrotation Zrotation
                                        JOINT RightHandIndex2
                                        {
                                            OFFSET -3.806000 0.000000 0.000000
                                            CHANNELS 3 Yrotation Xrotation Zrotation
                                            JOINT RightHandIndex3
                                            {
                                                OFFSET -2.158000 0.000000 0.000000
                                                CHANNELS 3 Yrotation Xrotation Zrotation
                                                End Site
                                                {
                                                    OFFSET -1.898000 0.000000 0.000000
                                                }
                                            }
                                        }
                                    }
                                }
                                JOINT RightInHandMiddle
                                {
                                    OFFSET -3.556000 0.544000 0.796000
                                    CHANNELS 3 Yrotation Xrotation Zrotation
                                    JOINT RightHandMiddle1
                                    {
                                        OFFSET -5.441000 -0.088000 0.330000
                                        CHANNELS 3 Yrotation Xrotation Zrotation
                                        JOINT RightHandMiddle2
                                        {
                                            OFFSET -4.153000 0.000000 0.000000
                                            CHANNELS 3 Yrotation Xrotation Zrotation
                                            JOINT RightHandMiddle3
                                            {
                                                OFFSET -2.603000 0.000000 0.000000
                                                CHANNELS 3 Yrotation Xrotation Zrotation
                                                End Site
                                                {
                                                    OFFSET -2.076000 0.000000 0.000000
                                                }
                                            }
                                        }
                                    }
                                }
                                JOINT RightInHandRing
                                {
                                    OFFSET -3.539000 0.566000 -0.136000
                                    CHANNELS 3 Yrotation Xrotation Zrotation
                                    JOINT RightHandRing1
                                    {
                                        OFFSET -4.873000 -0.023000 -0.504000
                                        CHANNELS 3 Yrotation Xrotation Zrotation
                                        JOINT RightHandRing2
                                        {
                                            OFFSET -3.619000 0.000000 0.000000
                                            CHANNELS 3 Yrotation Xrotation Zrotation
                                            JOINT RightHandRing3
                                            {
                                                OFFSET -2.511000 0.000000 0.000000
                                                CHANNELS 3 Yrotation Xrotation Zrotation
                                                End Site
                                                {
                                                    OFFSET -1.952000 0.000000 0.000000
                                                }
                                            }
                                        }
                                    }
                                }
                                JOINT RightInHandPinky
                                {
                                    OFFSET -3.324000 0.494000 -1.264000
                                    CHANNELS 3 Yrotation Xrotation Zrotation
                                    JOINT RightHandPinky1
                                    {
                                        OFFSET -4.354000 -0.023000 -1.147000
                                        CHANNELS 3 Yrotation Xrotation Zrotation
                                        JOINT RightHandPinky2
                                        {
                                            OFFSET -2.898000 0.000000 0.000000
                                            CHANNELS 3 Yrotation Xrotation Zrotation
                                            JOINT RightHandPinky3
                                            {
                                                OFFSET -1.831000 0.000000 0.000000
                                                CHANNELS 3 Yrotation Xrotation Zrotation
                                                End Site
                                                {
                                                    OFFSET -1.730000 0.000000 0.000000
                                                }
                                            }
                                        }
                                    }
                                }
                            }
                        }
                    }
                }
                JOINT LeftShoulder
                {
                    OFFSET 2.900000 13.340000 0.000000
                    CHANNELS 3 Yrotation Xrotation Zrotation
                    JOINT LeftArm
                    {
                        OFFSET 16.100000 0.000000 0.000000
                        CHANNELS 3 Yrotation Xrotation Zrotation
                        JOINT LeftForeArm
                        {
                            OFFSET 28.000000 0.000000 0.000000
                            CHANNELS 3 Yrotation Xrotation Zrotation
                            JOINT LeftHand
                            {
                                OFFSET 26.000000 0.000000 0.000000
                                CHANNELS 3 Yrotation Xrotation Zrotation
                                JOINT LeftHandThumb1
                                {
                                    OFFSET 1.937000 -0.484000 2.518000
                                    CHANNELS 3 Yrotation Xrotation Zrotation
                                    JOINT LeftHandThumb2
                                    {
                                        OFFSET 3.872000 0.000000 0.000000
                                        CHANNELS 3 Yrotation Xrotation Zrotation
                                        JOINT LeftHandThumb3
                                        {
                                            OFFSET 2.690000 0.000000 0.000000
                                            CHANNELS 3 Yrotation Xrotation Zrotation
                                            End Site
                                            {
                                                OFFSET 2.537000 0.000000 0.000000
                                            }
                                        }
                                    }
                                }
                                JOINT LeftInHandIndex
                                {
                                    OFFSET 3.389000 0.535000 2.080000
                                    CHANNELS 3 Yrotation Xrotation Zrotation
                                    JOINT LeftHandIndex1
                                    {
                                        OFFSET 5.485000 -0.096000 1.051000
                                        CHANNELS 3 Yrotation Xrotation Zrotation
                                        JOINT LeftHandIndex2
                                        {
                                            OFFSET 3.806000 0.000000 0.000000
                                            CHANNELS 3 Yrotation Xrotation Zrotation
                                            JOINT LeftHandIndex3
                                            {
                                                OFFSET 2.158000 0.000000 0.000000
                                                CHANNELS 3 Yrotation Xrotation Zrotation
                                                End Site
                                                {
                                                    OFFSET 1.898000 0.000000 0.000000
                                                }
                                            }
                                        }
                                    }
                                }
                                JOINT LeftInHandMiddle
                                {
                                    OFFSET 3.556000 0.544000 0.796000
                                    CHANNELS 3 Yrotation Xrotation Zrotation
                                    JOINT LeftHandMiddle1
                                    {
                                        OFFSET 5.441000 -0.088000 0.330000
                                        CHANNELS 3 Yrotation Xrotation Zrotation
                                        JOINT LeftHandMiddle2
                                        {
                                            OFFSET 4.153000 0.000000 0.000000
                                            CHANNELS 3 Yrotation Xrotation Zrotation
                                            JOINT LeftHandMiddle3
                                            {
                                                OFFSET 2.603000 0.000000 0.000000
                                                CHANNELS 3 Yrotation Xrotation Zrotation
                                                End Site
                                                {
                                                    OFFSET 2.076000 0.000000 0.000000
                                                }
                                            }
                                        }
                                    }
                                }
                                JOINT LeftInHandRing
                                {
                                    OFFSET 3.539000 0.566000 -0.136000
                                    CHANNELS 3 Yrotation Xrotation Zrotation
                                    JOINT LeftHandRing1
                                    {
                                        OFFSET 4.873000 -0.023000 -0.504000
                                        CHANNELS 3 Yrotation Xrotation Zrotation
                                        JOINT LeftHandRing2
                                        {
                                            OFFSET 3.619000 0.000000 0.000000
                                            CHANNELS 3 Yrotation Xrotation Zrotation
                                            JOINT LeftHandRing3
                                            {
                                                OFFSET 2.511000 0.000000 0.000000
                                                CHANNELS 3 Yrotation Xrotation Zrotation
                                                End Site
                                                {
                                                    OFFSET 1.952000 0.000000 0.000000
                                                }
                                            }
                                        }
                                    }
                                }
                                JOINT LeftInHandPinky
                                {
                                    OFFSET 3.324000 0.494000 -1.264000
                                    CHANNELS 3 Yrotation Xrotation Zrotation
                                    JOINT LeftHandPinky1
                                    {
                                        OFFSET 4.354000 -0.023000 -1.147000
                                        CHANNELS 3 Yrotation Xrotation Zrotation
                                        JOINT LeftHandPinky2
                                        {
                                            OFFSET 2.898000 0.000000 0.000000
                                            CHANNELS 3 Yrotation Xrotation Zrotation
                                            JOINT LeftHandPinky3
                                            {
                                                OFFSET 1.831000 0.000000 0.000000
                                                CHANNELS 3 Yrotation Xrotation Zrotation
                                                End Site
                                                {
                                                    OFFSET 1.730000 0.000000 0.000000
                                                }
                                            }
                                        }
                                    }
                                }
                            }
                        }
                    }
                }
            }
        }
    }
}
MOTION
Frames: 4
Frame Time: 0.011111
-56.385658 167.084656 123.196747 137.360992 105.652710 130.750290 11.145489 -118.198868 -10.562186 106.984329 100.378784 125.781967 157.572525 -134.188461 -174.338242 37.009529 -126.216202 -8.441460 28.242094 130.018387 3.746044 9.902641 -36.611050 0.744962 0.120393 14.518016 -4.424364 0.113922 14.244267 -7.413678 3.738431 10.053118 -9.473744 0.000102 -7.556955 6.175928 0.000114 -8.816414 6.396516 162.937134 -175.397415 -174.406982 38.435474 -16.625244 -14.853063 60.911537 -55.595020 11.320262 174.616852 169.129929 167.476715 179.693405 173.146667 87.489456 72.349243 44.575020 8.841352 179.999985 179.999985 174.096786 179.999985 -179.999985 176.068466 180.000000 180.000000 180.000000 15.000110 0.000011 2.168959 0.000092 0.000011 1.774600 0.000048 0.000009 1.242222 180.000000 180.000000 180.000000 179.999847 -179.999985 -179.670563 179.999832 -179.999985 -179.670563 179.999893 -179.999985 -179.780594 180.000000 180.000000 180.000000 169.999817 -179.999985 178.396942 180.000000 -180.000000 180.000000 180.000000 -180.000000 180.000000 180.000000 180.000000 180.000000 160.000000 -179.999985 169.997238 0.000003 -0.000000 0.000000 0.000003 -0.000000 0.000000 165.558670 -173.783188 -166.269608 105.540619 -129.892044 -164.767593 16.501627 13.180499 7.713779 153.092697 -173.570282 -100.005440 122.698502 136.771484 -174.564438 179.999832 179.999924 -176.345123 179.999878 179.999954 -177.565842 0.000000 0.000000 0.000000 165.000504 179.999481 -174.736710 0.000000 -0.000000 0.000000 0.000000 -0.000000 0.000000 0.000000 0.000000 0.000000 179.999710 -179.999710 -169.167099 0.000000 0.000000 -0.000000 0.000000 0.000000 -0.000000 0.000000 0.000000 0.000000 10.001790 0.001816 2.769401 0.000000 -0.000000 0.000000 0.000000 -0.000000 0.000000 0.000000 0.000000 0.000000 19.999887 -0.000102 -1.119440 179.999847 -179.999847 178.320847 179.999908 -179.999893 178.881683
-56.125610 167.361664 123.310997 139.083969 105.079117 132.663574 9.562811 -118.010902 -9.704295 109.133629 100.243500 127.753059 156.923218 -134.433655 -173.894608 35.317146 -127.540504 -5.525070 29.861956 130.191269 4.729736 9.924883 -37.085968 0.435547 179.997528 165.289459 175.647995 179.997040 165.572937 172.733292 3.163663 10.071742 -9.406186 0.000087 -7.568712 6.198995 0.000102 -8.830120 6.420392 163.077560 -175.382568 -174.401505 39.265095 -16.234980 -15.835889 60.240677 -55.880280 11.062996 174.437424 169.011780 167.474869 179.834137 173.430862 87.440834 72.389725 44.481388 8.867719 179.999924 -180.000000 174.101227 179.999969 -180.000000 176.071411 0.000000 -0.000000 0.000000 15.000009 0.000001 1.887461 0.000007 0.000001 1.544288 180.000000 -180.000000 -178.919006 0.000000 -0.000000 0.000000 179.999969 -179.999985 -179.431778 179.999969 -179.999985 -179.431778 179.999969 -179.999985 -179.621552 0.000000 -0.000000 0.000000 169.999878 -179.999985 178.608398 0.000000 -0.000000 0.000000 0.000000 -0.000000 0.000000 0.000000 -0.000000 0.000000 159.999023 -179.999908 169.403427 0.000000 -0.000000 0.000000 0.000000 -0.000000 0.000000 165.465805 -174.127808 -165.658371 105.513878 -129.252029 -164.445099 16.617365 13.306110 7.935147 153.175079 -173.345093 -99.978836 123.382355 136.610657 -173.967606 179.999908 179.999893 -176.378250 179.999924 179.999939 -177.587906 0.000000 0.000000 0.000000 165.002060 179.997269 -174.941223 0.000000 0.000000 0.000000 0.000000 0.000000 0.000000 0.000000 0.000000 0.000000 179.999359 -179.999191 -169.175156 0.000000 0.000000 0.000000 0.000000 0.000000 0.000000 0.000000 0.000000 0.000000 10.000898 0.001159 3.443173 0.000002 -0.000000 0.000000 0.000002 -0.000000 0.000000 0.000000 0.000000 0.000000 19.999840 -0.000224 -1.131444 179.999756 -179.999664 178.302841 179.999832 -179.999786 178.869690
-55.845867 167.587158 123.447166 140.873917 104.544762 134.650452 8.251401 -117.841141 -9.188075 110.303848 100.224899 128.933884 156.858597 -134.518158 -173.824356 34.706635 -129.102921 -4.147314 31.229073 129.935928 4.591914 9.793856 -37.490803 0.170434 179.884796 165.108719 175.717850 179.884705 165.401138 172.874374 2.607845 10.090734 -9.343134 0.000077 -7.577436 6.227821 0.000087 -8.840317 6.450258 163.214371 -175.372238 -174.393402 40.129433 -15.755833 -16.897648 59.489910 -56.272305 10.825445 174.539825 169.529114 167.580856 179.829941 173.025528 87.344940 72.463745 44.244587 8.921111 179.999878 -179.999985 174.124847 179.999924 -179.999985 176.087158 0.000000 -0.000000 -0.000000 15.000062 0.000015 1.968168 0.000062 0.000015 1.610319 0.000027 0.000010 1.127226 0.000000 -0.000000 -0.000000 179.999969 -179.999985 -179.380432 179.999969 -179.999985 -179.380432 179.999969 -179.999985 -179.587372 0.000000 -0.000000 -0.000000 169.999771 -179.999969 178.608231 0.000000 -0.000000 0.000000 0.000000 -0.000000 0.000000 0.000000 -0.000000 -0.000000 159.999374 -179.999908 170.401154 180.000000 180.000000 180.000000 180.000000 180.000000 180.000000 165.381409 -174.482147 -165.035797 105.364784 -128.346344 -164.108917 16.747717 13.479243 8.172246 153.247757 -173.793869 -99.900780 124.502289 136.780716 -173.101028 0.000044 -0.000029 3.406588 0.000044 -0.000018 2.268782 0.000000 -0.000000 0.000000 165.000793 179.999985 -174.124771 0.000000 -0.000000 0.000000 0.000000 -0.000000 0.000000 0.000000 -0.000000 0.000000 179.999741 -180.000000 -169.425339 0.000000 -0.000000 0.000000 0.000000 -0.000000 0.000000 0.000000 -0.000000 0.000000 10.000213 0.000003 3.832640 0.000000 -0.000000 0.000000 0.000000 -0.000000 0.000000 0.000000 -0.000000 0.000000 19.999998 0.000000 -1.222869 0.000012 0.000001 -1.834305 0.000009 -0.000002 -1.221649
-55.661076 167.813568 123.546127 142.758560 104.039497 136.739685 6.834697 -117.666908 -8.551517 111.343178 100.247093 130.010925 156.811707 -134.619888 -173.756134 34.169987 -130.529633 -2.906642 32.541454 129.335709 4.348520 9.876271 -37.823635 -0.441552 179.763306 164.938416 175.782425 179.778259 165.239029 173.013229 2.076483 10.112549 -9.278266 0.000058 -7.585963 6.256597 0.000067 -8.850277 6.480062 163.350128 -175.362152 -174.385361 41.025093 -15.185597 -18.055120 58.550095 -56.559196 10.692691 174.769623 170.313553 167.732010 179.804626 172.537033 87.244949 72.576019 43.703403 8.951432 179.999985 179.999985 174.172485 179.999985 -180.000000 176.118866 180.000000 -180.000000 180.000000 15.000043 0.000009 1.814167 0.000017 0.000007 1.484317 0.000024 0.000005 1.039023 180.000000 -180.000000 180.000000 179.999908 -179.999985 -179.374619 179.999893 -179.999985 -179.374619 179.999954 -179.999985 -179.583496 180.000000 -180.000000 180.000000 169.999832 -179.999985 178.921997 0.000000 -0.000000 0.000000 0.000000 -0.000000 0.000000 180.000000 -180.000000 180.000000 159.999527 -179.999924 171.126770 0.000000 -0.000000 0.000000 0.000000 -0.000000 0.000000 165.301178 -174.821991 -164.429672 105.672623 -128.294693 -163.939774 16.724327 12.801224 7.878200 153.298950 -173.666779 -99.820503 124.856964 136.869522 -172.634735 0.000214 -0.000047 3.426999 0.000143 -0.000020 2.282377 0.000000 -0.000000 0.000000 165.000793 -179.999786 -173.762283 0.000000 -0.000000 0.000000 0.000000 -0.000000 0.000000 0.000000 -0.000000 0.000000 179.999969 179.999985 -169.592941 180.000000 180.000000 180.000000 180.000000 180.000000 180.000000 0.000000 -0.000000 0.000000 10.000605 -0.000155 3.803963 0.000002 -0.000000 0.000000 0.000002 -0.000000 0.000000 0.000000 -0.000000 0.000000 19.999969 0.000007 -1.207078 179.999985 179.999985 178.189392 179.999985 179.999985 178.794128
